<svg width="168" height="48" viewBox="0 0 168 48" fill="none" xmlns="http://www.w3.org/2000/svg">
<g id="Group 1">
<g id="Group">
<path id="Vector" d="M20.1483 4.29437C16.858 4.29437 13.7078 4.99444 10.8376 6.18453C8.17734 7.30462 7.33728 10.6649 9.08741 12.905L10.9076 15.2852C11.9576 13.3951 12.8677 9.8248 20.4283 10.1048C27.7789 10.4548 28.3389 13.4651 29.459 15.2852L31.4192 12.765C33.2393 10.3848 32.1192 7.23459 29.389 6.1145C26.4488 4.99441 23.3685 4.29437 20.1483 4.29437Z" fill="white"/>
</g>
<g id="Group_2">
<path id="Vector_2" d="M16.088 41.8874C10.0676 39.5772 7.19735 32.5766 10.2776 26.6261C12.5878 22.1458 17.6982 19.8356 22.5986 21.0257C26.0988 21.9358 28.759 24.3159 30.0191 27.3262L35.0595 25.226C33.2394 20.9557 29.6691 17.4554 24.9087 15.9853C17.0681 13.5351 8.52745 17.3154 5.09718 24.736C1.10687 33.4167 5.37721 43.6375 14.1979 46.9277C17.9082 48.3278 21.8285 48.3279 25.2588 47.1378C26.0288 46.8578 26.3789 46.0177 26.0988 45.3176L25.7488 44.4075C25.1188 42.9374 23.5786 42.0273 22.0385 42.3774C20.0784 42.7274 18.0482 42.5874 16.088 41.8874Z" fill="white"/>
</g>
<path id="Vector_3" d="M40.31 25.576C40.52 25.856 40.45 26.3461 40.1 26.4861L32.1893 31.1765L27.919 33.6967L25.8188 34.9568C24.9788 35.4468 24.0687 36.2169 23.1586 36.4269C22.5986 36.4969 22.0385 36.3569 21.5485 36.0768C20.4284 35.4468 19.3783 34.3267 18.3982 33.4867L17.6982 32.8566C17.4882 32.6466 17.2082 32.6466 16.9281 32.7866L0.966872 41.6073C0.68685 41.7473 0.336824 41.6773 0.126808 41.3973C-0.083209 41.1173 -0.0132045 40.7672 0.196812 40.5572C1.80694 39.1571 3.41707 37.757 5.02719 36.2869C7.75741 33.9067 10.4876 31.4565 13.2178 29.0763C14.4079 28.0262 15.9481 26.0661 17.6282 26.0661C18.1182 26.0661 18.6083 26.1361 19.0283 26.4161C19.7984 26.8361 20.2184 27.6062 20.6384 28.3762C21.0585 29.0763 21.4785 29.7064 21.8985 30.3364C22.3186 30.9665 22.6686 31.5265 23.0886 32.1566C23.9287 31.5265 24.6987 30.8964 25.5388 30.2664L29.4591 27.2562L36.7397 21.7257C37.0197 21.5157 37.4397 21.5857 37.7198 21.8657L40.31 25.576Z" fill="white"/>
<g id="Group_3">
<g id="Group_4">
<path id="Vector_4" d="M140.978 11.1549C140.978 13.6051 139.158 15.4252 136.708 15.4252C134.257 15.4252 132.437 13.6051 132.437 11.1549C132.437 8.70471 134.257 6.88458 136.708 6.88458C139.158 6.88458 140.978 8.70471 140.978 11.1549Z" fill="white"/>
</g>
<g id="Group_5">
<path id="Vector_5" d="M132.857 39.3671C132.857 37.687 132.857 36.0069 132.857 34.3267C132.857 31.5965 132.857 28.8663 132.857 26.1361C132.857 24.316 132.857 22.4958 132.857 20.6756C132.857 20.6056 132.857 20.5356 132.857 20.4656C132.857 18.3655 134.397 16.8254 136.498 16.6854C138.738 16.5454 140.558 18.3655 140.558 20.6057V37.687V37.827C140.628 38.037 140.488 39.5072 142.588 39.6472C144.128 39.6472 144.338 38.5271 144.478 38.2471C144.618 37.967 144.688 37.617 144.688 37.267L144.758 20.4656C144.758 18.2955 146.438 16.6854 148.609 16.6854C150.149 16.6854 151.339 17.4554 151.969 18.6455C152.109 18.8555 152.319 18.9255 152.529 18.7855C153.929 17.8755 155.889 17.4554 158.409 17.4554C162.82 17.4554 168 20.3956 168 28.6563V41.9573C168 44.1275 166.32 45.7377 164.15 45.7377C161.98 45.7377 160.299 44.1275 160.299 41.9573V28.9363C160.299 26.3461 158.969 24.876 156.589 24.876C153.999 24.876 152.389 26.6261 152.389 29.3563V39.2971C152.389 39.2971 152.389 39.2971 152.389 39.3671C152.319 40.5572 151.899 41.6073 151.269 42.5874C149.869 44.6176 145.738 45.8076 142.658 45.8076C138.598 45.7376 132.927 44.4775 132.857 39.3671Z" fill="white"/>
</g>
<g id="Group_6">
<path id="Vector_6" d="M70.8324 33.9067C71.3924 33.3467 71.7424 32.5766 71.7424 31.7366C71.7424 29.8464 71.3924 28.0263 70.6223 26.3461C69.9223 24.666 68.9422 23.1959 67.6121 21.9358C64.8819 19.2056 61.5916 17.8754 57.7413 17.8754C55.8512 17.8754 54.031 18.2255 52.2809 18.9955C50.6008 19.6956 49.1307 20.6757 47.8005 22.0058C45.0703 24.736 43.7402 28.0262 43.7402 31.8065C43.7402 33.6967 44.0903 35.4468 44.8603 37.197C45.5604 38.8071 46.5404 40.2772 47.8005 41.6073C50.5308 44.2675 53.821 45.6676 57.6713 45.6676C62.3617 45.6676 66.212 44.1275 68.9422 40.9772C69.5023 40.3472 69.7823 39.5772 69.7123 38.8071C69.6423 37.967 69.2922 37.267 68.6622 36.6369C68.0321 36.0769 67.2621 35.8669 66.422 35.8669C65.582 35.9369 64.8119 36.2869 64.3219 36.9169C62.7817 38.6671 60.6116 39.5071 57.6713 39.5071C55.8512 39.5071 54.2411 38.9471 52.841 37.897C52.0009 37.267 51.3708 36.4969 50.8808 35.6568C50.6708 35.3768 50.9508 34.9568 51.3008 34.9568H68.5222C69.5023 34.8168 70.2723 34.5368 70.8324 33.9067ZM51.3708 28.6563C51.0208 28.6563 50.7408 28.2363 50.9508 27.9562C51.4408 27.0462 52.0709 26.2761 52.911 25.6461C54.3811 24.526 55.9212 23.9659 57.7413 23.9659C59.5615 23.9659 61.1016 24.526 62.5717 25.6461C63.4118 26.3461 64.1118 27.1162 64.6019 27.9562C64.7419 28.2363 64.5319 28.6563 64.1818 28.6563H51.3708Z" fill="white"/>
</g>
<g id="Group_7">
<path id="Vector_7" d="M90.0139 13.8151C90.0139 14.6552 89.7338 15.4253 89.1038 15.9853C88.5438 16.6154 87.7737 16.8954 86.9336 16.8954H82.3133C81.9632 16.8954 81.6832 17.1754 81.6832 17.5254V42.5874C81.6832 43.4275 81.4032 44.1975 80.7731 44.7576C80.2131 45.3176 79.443 45.6676 78.603 45.6676C77.7629 45.6676 76.9929 45.3876 76.4328 44.7576C75.8028 44.1975 75.5227 43.4275 75.5227 42.5874V17.5254C75.5227 17.1754 75.2427 16.8954 74.8927 16.8954H70.2023C69.3622 16.8954 68.5922 16.6154 68.0321 15.9853C67.4721 15.4253 67.1221 14.6552 67.1221 13.8151C67.1221 12.975 67.4021 12.205 68.0321 11.645C68.6622 11.0149 69.3622 10.7349 70.2023 10.7349H74.8927C75.2427 10.7349 75.5227 10.4549 75.5227 10.1048V3.31429C75.5227 2.47422 75.8028 1.70418 76.4328 1.14413C76.9929 0.514083 77.7629 0.23407 78.603 0.23407C79.443 0.23407 80.2131 0.584089 80.7731 1.14413C81.3332 1.70418 81.6832 2.47422 81.6832 3.31429V10.1048C81.6832 10.4549 81.9632 10.7349 82.3133 10.7349H86.9336C87.7737 10.7349 88.5438 11.0149 89.1038 11.645C89.6638 12.205 90.0139 12.975 90.0139 13.8151Z" fill="white"/>
</g>
<g id="Group_8">
<path id="Vector_8" d="M102.825 20.8157C102.825 21.6557 102.475 22.4258 101.915 22.9859C101.355 23.5459 100.585 23.8959 99.7446 23.8959C97.9245 23.8959 96.3843 24.596 95.0542 26.1361C93.7241 27.6762 93.0941 29.4964 93.0941 31.6665V42.4474C93.0941 43.2875 92.8141 44.0575 92.184 44.6176C91.554 45.2476 90.8539 45.5276 90.0138 45.5276C89.1738 45.5276 88.4037 45.2476 87.8437 44.6176C87.2836 43.9875 86.9336 43.2875 86.9336 42.4474V20.8857C86.9336 20.0456 87.2136 19.2756 87.8437 18.7155C88.4737 18.0855 89.1738 17.8055 90.0138 17.8055C90.8539 17.8055 91.554 18.0855 92.184 18.7155C92.394 18.9255 92.534 19.1355 92.674 19.4156C92.8141 19.6956 93.1641 19.7656 93.4441 19.6256C95.3343 18.4355 97.4344 17.8754 99.7446 17.8754C100.585 17.8754 101.355 18.2255 101.915 18.7855C102.475 19.2756 102.825 19.9756 102.825 20.8157Z" fill="white"/>
</g>
<g id="Group_9">
<path id="Vector_9" d="M127.467 18.7155C126.907 18.0855 126.137 17.8055 125.297 17.8055C124.457 17.8055 123.687 18.1555 123.127 18.7155C122.917 18.8555 122.777 19.0655 122.637 19.2755C122.357 19.6956 121.796 19.8356 121.376 19.5556C119.346 18.3655 117.106 17.8055 114.726 17.8055C110.946 17.8055 107.725 19.2056 105.065 21.8658C102.405 24.526 101.075 27.8862 101.075 31.6665C101.075 35.4468 102.405 38.7371 105.065 41.4673C107.725 44.1975 110.946 45.5276 114.726 45.5276C117.176 45.5276 119.346 44.9676 121.376 43.7775C121.796 43.4975 122.357 43.6375 122.637 44.0575C122.777 44.2675 122.917 44.4775 123.127 44.6176C123.687 45.1776 124.457 45.5276 125.297 45.5276C126.137 45.5276 126.907 45.2476 127.467 44.6176C128.027 44.0575 128.377 43.2875 128.377 42.4474V20.8857C128.307 19.9756 128.027 19.2756 127.467 18.7155ZM114.656 39.3671C112.556 39.3671 110.806 38.6671 109.335 37.127C107.865 35.5868 107.095 33.8367 107.095 31.6665C107.095 29.4964 107.795 27.7462 109.335 26.2061C110.806 24.666 112.556 23.9659 114.656 23.9659C116.756 23.9659 118.506 24.666 119.976 26.2061C121.446 27.7462 122.146 29.5664 122.146 31.6665C122.146 33.8367 121.446 35.5868 119.976 37.127C118.506 38.5971 116.756 39.3671 114.656 39.3671Z" fill="white"/>
</g>
</g>
</g>
</svg>
